<svg xmlns="http://www.w3.org/2000/svg" xmlns:xlink="http://www.w3.org/1999/xlink" width="500" zoomAndPan="magnify" viewBox="0 0 375 374.999991" height="500" preserveAspectRatio="xMidYMid meet" version="1.0"><defs><g/><clipPath id="c505698672"><path d="M 146.308594 162 L 228 162 L 228 205.878906 L 146.308594 205.878906 Z M 146.308594 162 " clip-rule="nonzero"/></clipPath><clipPath id="93292cd924"><path d="M 166 97.878906 L 208 97.878906 L 208 121 L 166 121 Z M 166 97.878906 " clip-rule="nonzero"/></clipPath></defs><g clip-path="url(#c505698672)"><path fill="#3f78c4" d="M 197.261719 184.277344 C 197.019531 185.003906 196.683594 185.613281 196.273438 186.097656 C 195.851562 186.582031 195.359375 186.953125 194.800781 187.195312 C 194.230469 187.4375 193.632812 187.550781 193 187.550781 C 192.050781 187.550781 191.296875 187.398438 190.734375 187.109375 C 190.167969 186.808594 189.738281 186.496094 189.441406 186.15625 C 189.042969 186.519531 188.558594 186.832031 187.988281 187.121094 C 187.425781 187.40625 186.765625 187.550781 186.003906 187.550781 C 185.414062 187.550781 184.863281 187.441406 184.34375 187.238281 C 183.832031 187.03125 183.371094 186.730469 182.984375 186.339844 C 182.601562 185.957031 182.296875 185.492188 182.082031 184.9375 C 181.863281 184.390625 181.753906 183.765625 181.753906 183.066406 C 181.753906 182.25 181.898438 181.480469 182.183594 180.769531 C 182.472656 180.058594 182.859375 179.4375 183.335938 178.925781 C 183.820312 178.402344 184.367188 177.996094 184.992188 177.6875 C 185.625 177.390625 186.273438 177.242188 186.957031 177.242188 C 187.761719 177.242188 188.414062 177.390625 188.921875 177.6875 C 189.425781 177.996094 189.839844 178.371094 190.160156 178.820312 L 190.414062 177.589844 L 193.15625 178.03125 L 192.066406 184.277344 C 192.039062 184.398438 192.015625 184.527344 192.007812 184.660156 C 192.003906 184.789062 191.996094 184.902344 191.996094 184.988281 C 191.996094 185.414062 192.144531 185.757812 192.4375 186.042969 C 192.734375 186.320312 193.148438 186.460938 193.695312 186.460938 C 194.109375 186.460938 194.5 186.355469 194.855469 186.15625 C 195.210938 185.957031 195.523438 185.648438 195.789062 185.25 C 196.050781 184.847656 196.25 184.355469 196.414062 183.765625 C 196.5625 183.179688 196.640625 182.492188 196.640625 181.722656 C 196.640625 180.648438 196.414062 179.617188 195.953125 178.621094 C 195.480469 177.617188 194.839844 176.742188 194.03125 175.976562 C 193.21875 175.207031 192.25 174.59375 191.128906 174.140625 C 190.003906 173.683594 188.792969 173.457031 187.492188 173.457031 C 186.175781 173.457031 184.957031 173.699219 183.832031 174.183594 C 182.707031 174.671875 181.742188 175.339844 180.921875 176.175781 C 180.105469 177.007812 179.457031 177.988281 178.996094 179.105469 C 178.523438 180.230469 178.296875 181.429688 178.296875 182.699219 C 178.296875 183.976562 178.523438 185.179688 178.996094 186.296875 C 179.457031 187.40625 180.105469 188.382812 180.929688 189.207031 C 181.753906 190.039062 182.746094 190.6875 183.890625 191.171875 C 185.042969 191.65625 186.296875 191.890625 187.683594 191.890625 C 188.835938 191.890625 189.851562 191.761719 190.734375 191.496094 C 191.605469 191.234375 192.484375 190.851562 193.367188 190.332031 L 193.832031 191.078125 C 192.933594 191.617188 191.988281 192.046875 190.984375 192.351562 C 189.996094 192.664062 188.886719 192.820312 187.683594 192.820312 C 186.195312 192.820312 184.816406 192.550781 183.554688 192.015625 C 182.296875 191.484375 181.199219 190.757812 180.269531 189.839844 C 179.34375 188.921875 178.617188 187.839844 178.097656 186.617188 C 177.578125 185.394531 177.320312 184.09375 177.320312 182.699219 C 177.320312 181.304688 177.585938 179.988281 178.113281 178.761719 C 178.636719 177.53125 179.355469 176.457031 180.269531 175.535156 C 181.1875 174.617188 182.261719 173.882812 183.5 173.335938 C 184.738281 172.800781 186.066406 172.523438 187.492188 172.523438 C 188.914062 172.523438 190.246094 172.78125 191.476562 173.292969 C 192.707031 173.804688 193.78125 174.488281 194.691406 175.339844 C 195.601562 176.1875 196.320312 177.164062 196.839844 178.273438 C 197.359375 179.382812 197.617188 180.527344 197.617188 181.722656 C 197.617188 182.699219 197.503906 183.550781 197.261719 184.277344 Z M 220.886719 201.066406 L 224.914062 169.777344 C 225.339844 166.078125 222.464844 162.847656 218.75 162.847656 L 156.1875 162.847656 C 152.472656 162.847656 149.597656 166.078125 150.023438 169.777344 L 154.058594 201.066406 L 146.941406 201.066406 L 146.941406 205.753906 L 227.996094 205.753906 L 227.996094 201.066406 L 220.886719 201.066406 " fill-opacity="1" fill-rule="nonzero"/></g><path fill="#3f78c4" d="M 187.417969 179.632812 C 187.058594 179.632812 186.699219 179.71875 186.359375 179.878906 C 186.011719 180.058594 185.710938 180.285156 185.460938 180.570312 C 185.207031 180.863281 185.007812 181.203125 184.859375 181.601562 C 184.707031 182.007812 184.636719 182.441406 184.636719 182.902344 C 184.636719 183.636719 184.835938 184.191406 185.242188 184.574219 C 185.640625 184.96875 186.167969 185.160156 186.820312 185.160156 C 187.183594 185.160156 187.546875 185.074219 187.875 184.902344 C 188.210938 184.738281 188.507812 184.496094 188.757812 184.199219 C 189.011719 183.894531 189.214844 183.539062 189.363281 183.140625 C 189.511719 182.734375 189.582031 182.300781 189.582031 181.816406 C 189.582031 181.148438 189.382812 180.621094 188.976562 180.222656 C 188.574219 179.832031 188.058594 179.632812 187.417969 179.632812 " fill-opacity="1" fill-rule="nonzero"/><path fill="#38404c" d="M 200.925781 117.601562 L 200.925781 110.785156 L 197.046875 112.132812 L 188.375 115.148438 L 188.230469 115.199219 L 187.460938 115.460938 L 186.695312 115.199219 L 186.550781 115.148438 L 177.769531 112.089844 L 177.257812 111.910156 L 174.003906 110.785156 L 174.003906 117.601562 C 174.003906 118.621094 174.519531 119.515625 175.300781 120.042969 C 175.761719 120.363281 176.332031 120.539062 176.945312 120.539062 L 197.988281 120.539062 C 198.472656 120.539062 198.933594 120.425781 199.339844 120.214844 C 200.277344 119.722656 200.925781 118.742188 200.925781 117.601562 " fill-opacity="1" fill-rule="nonzero"/><g clip-path="url(#93292cd924)"><path fill="#38404c" d="M 204.996094 119.160156 C 204.769531 119.160156 204.191406 118.449219 204.191406 117.125 C 204.191406 115.800781 204.769531 115.089844 204.996094 115.089844 C 205.230469 115.089844 205.808594 115.800781 205.808594 117.125 C 205.808594 118.449219 205.230469 119.160156 204.996094 119.160156 Z M 187.320312 112.933594 L 187.460938 112.984375 L 187.605469 112.933594 L 196.578125 109.820312 L 204.121094 107.195312 L 204.121094 113.554688 C 203.125 114.058594 202.441406 115.425781 202.441406 117.125 C 202.441406 119.289062 203.539062 120.917969 204.996094 120.917969 C 206.460938 120.917969 207.558594 119.289062 207.558594 117.125 C 207.558594 115.425781 206.882812 114.058594 205.878906 113.554688 L 205.878906 106.582031 L 207.949219 105.863281 L 187.460938 97.816406 L 166.980469 105.863281 L 178.347656 109.820312 L 187.320312 112.933594 " fill-opacity="1" fill-rule="nonzero"/></g><path fill="#38404c" d="M 199.113281 122.148438 C 198.734375 122.246094 198.335938 122.296875 197.921875 122.296875 L 176.875 122.296875 C 176.503906 122.296875 176.148438 122.253906 175.804688 122.175781 C 174.203125 126.003906 175.707031 128.964844 177.875 129.710938 L 178.160156 129.71875 C 178.980469 134.242188 183.433594 137.863281 187.867188 137.847656 C 192.566406 137.84375 195.996094 134 197.089844 129.695312 C 197.511719 129.53125 201.039062 127.980469 199.324219 122.71875 C 199.253906 122.503906 199.183594 122.3125 199.113281 122.148438 " fill-opacity="1" fill-rule="nonzero"/><path fill="#38404c" d="M 214.367188 149.550781 C 213.941406 148.199219 212.929688 147.105469 211.601562 146.621094 C 200.144531 142.53125 196.917969 139.683594 196.042969 138.246094 C 195.886719 137.984375 195.496094 138.046875 195.402344 138.332031 L 190.410156 155.558594 L 190.410156 151.367188 C 190.410156 148.996094 189.226562 148.1875 188.496094 146.429688 C 187.859375 144.921875 189.53125 143.78125 190.535156 143.292969 C 190.84375 143.136719 190.921875 142.738281 190.6875 142.488281 L 187.824219 139.527344 C 187.632812 139.316406 187.296875 139.316406 187.105469 139.527344 L 184.253906 142.488281 C 184.011719 142.738281 184.089844 143.136719 184.394531 143.292969 C 185.40625 143.78125 187.070312 144.921875 186.4375 146.429688 C 185.703125 148.199219 184.523438 148.984375 184.523438 151.367188 L 184.523438 155.558594 L 179.527344 138.332031 C 179.441406 138.046875 179.050781 137.984375 178.894531 138.246094 C 178.019531 139.683594 174.796875 142.53125 163.339844 146.628906 C 162 147.105469 160.996094 148.195312 160.5625 149.546875 C 159.679688 152.335938 157.546875 155.308594 156.59375 159.824219 L 218.347656 159.824219 C 217.386719 155.308594 215.25 152.328125 214.367188 149.550781 " fill-opacity="1" fill-rule="nonzero"/><g fill="#000000" fill-opacity="1"><g transform="translate(89.765624, 243.874496)"><g><path d="M 4.984375 0.28125 C 4.046875 0.28125 3.320312 0.0234375 2.8125 -0.484375 C 2.300781 -0.992188 2.046875 -1.726562 2.046875 -2.6875 L 2.046875 -19.875 C 2.046875 -20.832031 2.300781 -21.566406 2.8125 -22.078125 C 3.320312 -22.585938 4.046875 -22.84375 4.984375 -22.84375 C 5.929688 -22.84375 6.660156 -22.585938 7.171875 -22.078125 C 7.679688 -21.566406 7.9375 -20.832031 7.9375 -19.875 L 7.9375 -12.890625 L 8 -12.890625 L 15.78125 -21.46875 C 16.1875 -21.894531 16.617188 -22.226562 17.078125 -22.46875 C 17.535156 -22.71875 18.050781 -22.84375 18.625 -22.84375 C 19.5 -22.84375 20.140625 -22.613281 20.546875 -22.15625 C 20.953125 -21.695312 21.132812 -21.15625 21.09375 -20.53125 C 21.050781 -19.914062 20.804688 -19.363281 20.359375 -18.875 L 13.703125 -11.84375 L 20.734375 -3.875 C 21.285156 -3.25 21.5625 -2.617188 21.5625 -1.984375 C 21.5625 -1.347656 21.335938 -0.8125 20.890625 -0.375 C 20.441406 0.0625 19.800781 0.28125 18.96875 0.28125 C 18.25 0.28125 17.664062 0.140625 17.21875 -0.140625 C 16.769531 -0.429688 16.300781 -0.863281 15.8125 -1.4375 L 8 -10.171875 L 7.9375 -10.171875 L 7.9375 -2.6875 C 7.9375 -1.726562 7.6875 -0.992188 7.1875 -0.484375 C 6.6875 0.0234375 5.953125 0.28125 4.984375 0.28125 Z M 4.984375 0.28125 "/></g></g></g><g fill="#000000" fill-opacity="1"><g transform="translate(112.544023, 243.874496)"><g><path d="M 5.125 0 C 3.070312 0 2.046875 -1.015625 2.046875 -3.046875 L 2.046875 -19.515625 C 2.046875 -21.546875 3.070312 -22.5625 5.125 -22.5625 L 15.96875 -22.5625 C 17.5 -22.5625 18.265625 -21.8125 18.265625 -20.3125 C 18.265625 -18.78125 17.5 -18.015625 15.96875 -18.015625 L 7.6875 -18.015625 L 7.6875 -13.734375 L 15.265625 -13.734375 C 16.796875 -13.734375 17.5625 -12.972656 17.5625 -11.453125 C 17.5625 -9.941406 16.796875 -9.1875 15.265625 -9.1875 L 7.6875 -9.1875 L 7.6875 -4.546875 L 15.96875 -4.546875 C 17.5 -4.546875 18.265625 -3.785156 18.265625 -2.265625 C 18.265625 -0.753906 17.5 0 15.96875 0 Z M 5.125 0 "/></g></g></g><g fill="#000000" fill-opacity="1"><g transform="translate(132.187199, 243.874496)"><g><path d="M 5.03125 0 C 4.0625 0 3.320312 -0.257812 2.8125 -0.78125 C 2.300781 -1.300781 2.046875 -2.03125 2.046875 -2.96875 L 2.046875 -19.609375 C 2.046875 -20.578125 2.300781 -21.316406 2.8125 -21.828125 C 3.320312 -22.335938 4.046875 -22.59375 4.984375 -22.59375 C 5.929688 -22.59375 6.660156 -22.335938 7.171875 -21.828125 C 7.679688 -21.316406 7.9375 -20.578125 7.9375 -19.609375 L 7.9375 -4.890625 L 15.75 -4.890625 C 16.550781 -4.890625 17.171875 -4.675781 17.609375 -4.25 C 18.046875 -3.820312 18.265625 -3.226562 18.265625 -2.46875 C 18.265625 -1.675781 18.046875 -1.066406 17.609375 -0.640625 C 17.171875 -0.210938 16.550781 0 15.75 0 Z M 5.03125 0 "/></g></g></g><g fill="#000000" fill-opacity="1"><g transform="translate(150.902602, 243.874496)"><g><path d="M 3.109375 0.28125 C 2.097656 0.28125 1.359375 -0.0546875 0.890625 -0.734375 C 0.421875 -1.421875 0.421875 -2.273438 0.890625 -3.296875 L 8.859375 -20.453125 C 9.242188 -21.285156 9.710938 -21.890625 10.265625 -22.265625 C 10.828125 -22.648438 11.476562 -22.84375 12.21875 -22.84375 C 12.945312 -22.84375 13.585938 -22.648438 14.140625 -22.265625 C 14.691406 -21.890625 15.160156 -21.285156 15.546875 -20.453125 L 23.515625 -3.296875 C 24.003906 -2.253906 24.023438 -1.394531 23.578125 -0.71875 C 23.128906 -0.0507812 22.425781 0.28125 21.46875 0.28125 C 20.613281 0.28125 19.957031 0.09375 19.5 -0.28125 C 19.039062 -0.664062 18.628906 -1.285156 18.265625 -2.140625 L 17.25 -4.578125 L 7.171875 -4.578125 L 6.140625 -2.140625 C 5.753906 -1.285156 5.359375 -0.664062 4.953125 -0.28125 C 4.554688 0.09375 3.941406 0.28125 3.109375 0.28125 Z M 12.15625 -16.421875 L 9.09375 -9.09375 L 15.296875 -9.09375 L 12.21875 -16.421875 Z M 12.15625 -16.421875 "/></g></g></g><g fill="#000000" fill-opacity="1"><g transform="translate(175.312596, 243.874496)"><g><path d="M 10.4375 0.359375 C 9.132812 0.359375 7.796875 0.222656 6.421875 -0.046875 C 5.046875 -0.316406 3.863281 -0.695312 2.875 -1.1875 C 2.300781 -1.457031 1.894531 -1.828125 1.65625 -2.296875 C 1.425781 -2.773438 1.34375 -3.265625 1.40625 -3.765625 C 1.46875 -4.265625 1.648438 -4.710938 1.953125 -5.109375 C 2.253906 -5.503906 2.648438 -5.769531 3.140625 -5.90625 C 3.628906 -6.039062 4.179688 -5.972656 4.796875 -5.703125 C 5.609375 -5.296875 6.523438 -4.988281 7.546875 -4.78125 C 8.578125 -4.582031 9.539062 -4.484375 10.4375 -4.484375 C 11.84375 -4.484375 12.828125 -4.664062 13.390625 -5.03125 C 13.953125 -5.40625 14.234375 -5.875 14.234375 -6.4375 C 14.234375 -6.925781 14.035156 -7.316406 13.640625 -7.609375 C 13.253906 -7.910156 12.554688 -8.171875 11.546875 -8.390625 L 7.8125 -9.1875 C 3.757812 -10.0625 1.734375 -12.179688 1.734375 -15.546875 C 1.734375 -17.023438 2.128906 -18.316406 2.921875 -19.421875 C 3.722656 -20.535156 4.835938 -21.394531 6.265625 -22 C 7.703125 -22.601562 9.367188 -22.90625 11.265625 -22.90625 C 12.367188 -22.90625 13.492188 -22.78125 14.640625 -22.53125 C 15.785156 -22.289062 16.769531 -21.925781 17.59375 -21.4375 C 18.238281 -21.09375 18.644531 -20.628906 18.8125 -20.046875 C 18.988281 -19.460938 18.96875 -18.890625 18.75 -18.328125 C 18.539062 -17.773438 18.160156 -17.367188 17.609375 -17.109375 C 17.066406 -16.859375 16.378906 -16.90625 15.546875 -17.25 C 14.910156 -17.519531 14.207031 -17.722656 13.4375 -17.859375 C 12.664062 -18.003906 11.921875 -18.078125 11.203125 -18.078125 C 10.003906 -18.078125 9.082031 -17.867188 8.4375 -17.453125 C 7.800781 -17.035156 7.484375 -16.5 7.484375 -15.84375 C 7.484375 -15.375 7.675781 -14.988281 8.0625 -14.6875 C 8.445312 -14.382812 9.128906 -14.128906 10.109375 -13.921875 L 13.828125 -13.125 C 17.941406 -12.25 20 -10.175781 20 -6.90625 C 20 -5.4375 19.601562 -4.15625 18.8125 -3.0625 C 18.019531 -1.976562 16.910156 -1.132812 15.484375 -0.53125 C 14.054688 0.0625 12.375 0.359375 10.4375 0.359375 Z M 10.4375 0.359375 "/></g></g></g><g fill="#000000" fill-opacity="1"><g transform="translate(196.13948, 243.874496)"><g><path d="M 4.765625 0.28125 C 3.910156 0.28125 3.253906 0.046875 2.796875 -0.421875 C 2.335938 -0.890625 2.109375 -1.550781 2.109375 -2.40625 L 2.109375 -20.15625 C 2.109375 -21.03125 2.351562 -21.695312 2.84375 -22.15625 C 3.332031 -22.613281 4.023438 -22.84375 4.921875 -22.84375 C 5.648438 -22.84375 6.238281 -22.695312 6.6875 -22.40625 C 7.132812 -22.125 7.539062 -21.648438 7.90625 -20.984375 L 14.203125 -9.625 L 20.515625 -20.984375 C 20.898438 -21.648438 21.3125 -22.125 21.75 -22.40625 C 22.1875 -22.695312 22.773438 -22.84375 23.515625 -22.84375 C 24.347656 -22.84375 25 -22.613281 25.46875 -22.15625 C 25.9375 -21.695312 26.171875 -21.03125 26.171875 -20.15625 L 26.171875 -2.40625 C 26.171875 -1.550781 25.945312 -0.890625 25.5 -0.421875 C 25.050781 0.046875 24.390625 0.28125 23.515625 0.28125 C 22.660156 0.28125 22.003906 0.046875 21.546875 -0.421875 C 21.085938 -0.890625 20.859375 -1.550781 20.859375 -2.40625 L 20.859375 -12.25 L 16.390625 -4.453125 C 16.085938 -3.984375 15.769531 -3.628906 15.4375 -3.390625 C 15.101562 -3.160156 14.660156 -3.046875 14.109375 -3.046875 C 13.578125 -3.046875 13.140625 -3.160156 12.796875 -3.390625 C 12.453125 -3.628906 12.144531 -3.984375 11.875 -4.453125 L 7.421875 -12.125 L 7.421875 -2.40625 C 7.421875 -1.550781 7.195312 -0.890625 6.75 -0.421875 C 6.300781 0.046875 5.640625 0.28125 4.765625 0.28125 Z M 4.765625 0.28125 "/></g></g></g><g fill="#000000" fill-opacity="1"><g transform="translate(224.42053, 243.874496)"><g><path d="M 3.109375 0.28125 C 2.097656 0.28125 1.359375 -0.0546875 0.890625 -0.734375 C 0.421875 -1.421875 0.421875 -2.273438 0.890625 -3.296875 L 8.859375 -20.453125 C 9.242188 -21.285156 9.710938 -21.890625 10.265625 -22.265625 C 10.828125 -22.648438 11.476562 -22.84375 12.21875 -22.84375 C 12.945312 -22.84375 13.585938 -22.648438 14.140625 -22.265625 C 14.691406 -21.890625 15.160156 -21.285156 15.546875 -20.453125 L 23.515625 -3.296875 C 24.003906 -2.253906 24.023438 -1.394531 23.578125 -0.71875 C 23.128906 -0.0507812 22.425781 0.28125 21.46875 0.28125 C 20.613281 0.28125 19.957031 0.09375 19.5 -0.28125 C 19.039062 -0.664062 18.628906 -1.285156 18.265625 -2.140625 L 17.25 -4.578125 L 7.171875 -4.578125 L 6.140625 -2.140625 C 5.753906 -1.285156 5.359375 -0.664062 4.953125 -0.28125 C 4.554688 0.09375 3.941406 0.28125 3.109375 0.28125 Z M 12.15625 -16.421875 L 9.09375 -9.09375 L 15.296875 -9.09375 L 12.21875 -16.421875 Z M 12.15625 -16.421875 "/></g></g></g><g fill="#000000" fill-opacity="1"><g transform="translate(248.830524, 243.874496)"><g><path d="M 2.171875 0.25 C 1.316406 0.289062 0.660156 0.0703125 0.203125 -0.40625 C -0.253906 -0.882812 -0.484375 -1.492188 -0.484375 -2.234375 C -0.484375 -2.816406 -0.320312 -3.320312 0 -3.75 C 0.320312 -4.175781 0.800781 -4.410156 1.4375 -4.453125 L 2.34375 -4.515625 C 3.125 -4.554688 3.691406 -4.738281 4.046875 -5.0625 C 4.398438 -5.394531 4.578125 -5.945312 4.578125 -6.71875 L 4.578125 -19.875 C 4.578125 -20.832031 4.832031 -21.566406 5.34375 -22.078125 C 5.851562 -22.585938 6.578125 -22.84375 7.515625 -22.84375 C 8.453125 -22.84375 9.175781 -22.585938 9.6875 -22.078125 C 10.207031 -21.566406 10.46875 -20.832031 10.46875 -19.875 L 10.46875 -6.8125 C 10.46875 -2.414062 8.085938 -0.0820312 3.328125 0.1875 Z M 2.171875 0.25 "/></g></g></g><g fill="#000000" fill-opacity="1"><g transform="translate(261.307456, 243.874496)"><g><path d="M 12.03125 0.359375 C 8.75 0.359375 6.238281 -0.472656 4.5 -2.140625 C 2.757812 -3.804688 1.890625 -6.289062 1.890625 -9.59375 L 1.890625 -19.875 C 1.890625 -20.832031 2.144531 -21.566406 2.65625 -22.078125 C 3.164062 -22.585938 3.890625 -22.84375 4.828125 -22.84375 C 5.765625 -22.84375 6.488281 -22.585938 7 -22.078125 C 7.519531 -21.566406 7.78125 -20.832031 7.78125 -19.875 L 7.78125 -9.53125 C 7.78125 -7.894531 8.140625 -6.660156 8.859375 -5.828125 C 9.585938 -4.992188 10.644531 -4.578125 12.03125 -4.578125 C 13.394531 -4.578125 14.4375 -4.992188 15.15625 -5.828125 C 15.882812 -6.660156 16.25 -7.894531 16.25 -9.53125 L 16.25 -19.875 C 16.25 -20.832031 16.5 -21.566406 17 -22.078125 C 17.507812 -22.585938 18.234375 -22.84375 19.171875 -22.84375 C 20.109375 -22.84375 20.820312 -22.585938 21.3125 -22.078125 C 21.800781 -21.566406 22.046875 -20.832031 22.046875 -19.875 L 22.046875 -9.59375 C 22.046875 -6.289062 21.195312 -3.804688 19.5 -2.140625 C 17.800781 -0.472656 15.3125 0.359375 12.03125 0.359375 Z M 12.03125 0.359375 "/></g></g></g><g fill="#000000" fill-opacity="1"><g transform="translate(119.048654, 270.256828)"><g><path d="M 7.5 0.171875 C 6.195312 0.171875 5.054688 -0.109375 4.078125 -0.671875 C 3.097656 -1.234375 2.34375 -2.035156 1.8125 -3.078125 C 1.289062 -4.128906 1.03125 -5.359375 1.03125 -6.765625 C 1.03125 -8.171875 1.289062 -9.394531 1.8125 -10.4375 C 2.34375 -11.476562 3.097656 -12.28125 4.078125 -12.84375 C 5.054688 -13.40625 6.195312 -13.6875 7.5 -13.6875 C 8.34375 -13.6875 9.132812 -13.5625 9.875 -13.3125 C 10.613281 -13.0625 11.269531 -12.703125 11.84375 -12.234375 C 12.007812 -12.109375 12.125 -11.972656 12.1875 -11.828125 C 12.257812 -11.691406 12.296875 -11.519531 12.296875 -11.3125 C 12.296875 -11.03125 12.21875 -10.789062 12.0625 -10.59375 C 11.90625 -10.40625 11.71875 -10.3125 11.5 -10.3125 C 11.25 -10.3125 10.988281 -10.398438 10.71875 -10.578125 C 10.164062 -10.992188 9.648438 -11.28125 9.171875 -11.4375 C 8.703125 -11.59375 8.179688 -11.671875 7.609375 -11.671875 C 6.285156 -11.671875 5.28125 -11.253906 4.59375 -10.421875 C 3.90625 -9.597656 3.5625 -8.378906 3.5625 -6.765625 C 3.5625 -5.140625 3.90625 -3.910156 4.59375 -3.078125 C 5.28125 -2.253906 6.285156 -1.84375 7.609375 -1.84375 C 8.160156 -1.84375 8.664062 -1.925781 9.125 -2.09375 C 9.59375 -2.257812 10.125 -2.539062 10.71875 -2.9375 C 10.84375 -3.007812 10.96875 -3.070312 11.09375 -3.125 C 11.226562 -3.175781 11.363281 -3.203125 11.5 -3.203125 C 11.71875 -3.203125 11.90625 -3.101562 12.0625 -2.90625 C 12.21875 -2.71875 12.296875 -2.484375 12.296875 -2.203125 C 12.296875 -2.015625 12.257812 -1.84375 12.1875 -1.6875 C 12.125 -1.539062 12.007812 -1.40625 11.84375 -1.28125 C 11.269531 -0.8125 10.613281 -0.453125 9.875 -0.203125 C 9.132812 0.046875 8.34375 0.171875 7.5 0.171875 Z M 7.5 0.171875 "/></g></g></g><g fill="#000000" fill-opacity="1"><g transform="translate(133.956825, 270.256828)"><g><path d="M 2.625 0 C 2.257812 0 1.972656 -0.0976562 1.765625 -0.296875 C 1.554688 -0.503906 1.453125 -0.789062 1.453125 -1.15625 L 1.453125 -12.390625 C 1.453125 -12.753906 1.5625 -13.046875 1.78125 -13.265625 C 2.007812 -13.492188 2.3125 -13.609375 2.6875 -13.609375 C 3.070312 -13.609375 3.375 -13.492188 3.59375 -13.265625 C 3.820312 -13.046875 3.9375 -12.753906 3.9375 -12.390625 L 3.9375 -2.03125 L 9.3125 -2.03125 C 10.082031 -2.03125 10.46875 -1.691406 10.46875 -1.015625 C 10.46875 -0.335938 10.082031 0 9.3125 0 Z M 2.625 0 "/></g></g></g><g fill="#000000" fill-opacity="1"><g transform="translate(146.508304, 270.256828)"><g><path d="M 13.703125 -1.46875 C 13.785156 -1.3125 13.828125 -1.148438 13.828125 -0.984375 C 13.828125 -0.679688 13.707031 -0.425781 13.46875 -0.21875 C 13.226562 -0.0195312 12.957031 0.078125 12.65625 0.078125 C 12.445312 0.078125 12.253906 0.0234375 12.078125 -0.078125 C 11.898438 -0.191406 11.757812 -0.363281 11.65625 -0.59375 L 10.5 -3.15625 L 3.75 -3.15625 L 2.609375 -0.59375 C 2.503906 -0.363281 2.363281 -0.191406 2.1875 -0.078125 C 2.007812 0.0234375 1.8125 0.078125 1.59375 0.078125 C 1.300781 0.078125 1.03125 -0.0195312 0.78125 -0.21875 C 0.539062 -0.425781 0.421875 -0.679688 0.421875 -0.984375 C 0.421875 -1.148438 0.457031 -1.3125 0.53125 -1.46875 L 5.828125 -12.84375 C 5.941406 -13.101562 6.113281 -13.296875 6.34375 -13.421875 C 6.582031 -13.554688 6.835938 -13.625 7.109375 -13.625 C 7.378906 -13.625 7.628906 -13.554688 7.859375 -13.421875 C 8.097656 -13.296875 8.273438 -13.101562 8.390625 -12.84375 Z M 4.59375 -5.078125 L 9.65625 -5.078125 L 7.125 -10.78125 Z M 4.59375 -5.078125 "/></g></g></g><g fill="#000000" fill-opacity="1"><g transform="translate(162.642721, 270.256828)"><g><path d="M 6.140625 0.171875 C 5.148438 0.171875 4.21875 0.0390625 3.34375 -0.21875 C 2.46875 -0.476562 1.753906 -0.832031 1.203125 -1.28125 C 0.910156 -1.5 0.765625 -1.804688 0.765625 -2.203125 C 0.765625 -2.472656 0.84375 -2.707031 1 -2.90625 C 1.164062 -3.101562 1.359375 -3.203125 1.578125 -3.203125 C 1.804688 -3.203125 2.066406 -3.113281 2.359375 -2.9375 C 2.910156 -2.539062 3.484375 -2.25 4.078125 -2.0625 C 4.679688 -1.882812 5.347656 -1.796875 6.078125 -1.796875 C 7.015625 -1.796875 7.726562 -1.957031 8.21875 -2.28125 C 8.71875 -2.613281 8.96875 -3.09375 8.96875 -3.71875 C 8.96875 -4.207031 8.734375 -4.582031 8.265625 -4.84375 C 7.804688 -5.101562 7.03125 -5.351562 5.9375 -5.59375 C 4.8125 -5.84375 3.894531 -6.125 3.1875 -6.4375 C 2.488281 -6.757812 1.960938 -7.171875 1.609375 -7.671875 C 1.253906 -8.171875 1.078125 -8.800781 1.078125 -9.5625 C 1.078125 -10.351562 1.300781 -11.0625 1.75 -11.6875 C 2.195312 -12.320312 2.816406 -12.8125 3.609375 -13.15625 C 4.410156 -13.507812 5.3125 -13.6875 6.3125 -13.6875 C 8.132812 -13.6875 9.625 -13.203125 10.78125 -12.234375 C 10.945312 -12.085938 11.0625 -11.945312 11.125 -11.8125 C 11.195312 -11.6875 11.234375 -11.519531 11.234375 -11.3125 C 11.234375 -11.039062 11.148438 -10.804688 10.984375 -10.609375 C 10.828125 -10.410156 10.640625 -10.3125 10.421875 -10.3125 C 10.296875 -10.3125 10.175781 -10.328125 10.0625 -10.359375 C 9.957031 -10.398438 9.816406 -10.472656 9.640625 -10.578125 C 9.117188 -10.960938 8.609375 -11.25 8.109375 -11.4375 C 7.617188 -11.625 7.019531 -11.71875 6.3125 -11.71875 C 5.4375 -11.71875 4.742188 -11.539062 4.234375 -11.1875 C 3.734375 -10.832031 3.484375 -10.34375 3.484375 -9.71875 C 3.484375 -9.195312 3.707031 -8.796875 4.15625 -8.515625 C 4.601562 -8.234375 5.363281 -7.96875 6.4375 -7.71875 C 7.570312 -7.46875 8.492188 -7.1875 9.203125 -6.875 C 9.921875 -6.5625 10.46875 -6.160156 10.84375 -5.671875 C 11.21875 -5.191406 11.40625 -4.585938 11.40625 -3.859375 C 11.40625 -3.066406 11.179688 -2.363281 10.734375 -1.75 C 10.296875 -1.144531 9.675781 -0.671875 8.875 -0.328125 C 8.082031 0.00390625 7.171875 0.171875 6.140625 0.171875 Z M 6.140625 0.171875 "/></g></g></g><g fill="#000000" fill-opacity="1"><g transform="translate(176.784494, 270.256828)"><g><path d="M 6.140625 0.171875 C 5.148438 0.171875 4.21875 0.0390625 3.34375 -0.21875 C 2.46875 -0.476562 1.753906 -0.832031 1.203125 -1.28125 C 0.910156 -1.5 0.765625 -1.804688 0.765625 -2.203125 C 0.765625 -2.472656 0.84375 -2.707031 1 -2.90625 C 1.164062 -3.101562 1.359375 -3.203125 1.578125 -3.203125 C 1.804688 -3.203125 2.066406 -3.113281 2.359375 -2.9375 C 2.910156 -2.539062 3.484375 -2.25 4.078125 -2.0625 C 4.679688 -1.882812 5.347656 -1.796875 6.078125 -1.796875 C 7.015625 -1.796875 7.726562 -1.957031 8.21875 -2.28125 C 8.71875 -2.613281 8.96875 -3.09375 8.96875 -3.71875 C 8.96875 -4.207031 8.734375 -4.582031 8.265625 -4.84375 C 7.804688 -5.101562 7.03125 -5.351562 5.9375 -5.59375 C 4.8125 -5.84375 3.894531 -6.125 3.1875 -6.4375 C 2.488281 -6.757812 1.960938 -7.171875 1.609375 -7.671875 C 1.253906 -8.171875 1.078125 -8.800781 1.078125 -9.5625 C 1.078125 -10.351562 1.300781 -11.0625 1.75 -11.6875 C 2.195312 -12.320312 2.816406 -12.8125 3.609375 -13.15625 C 4.410156 -13.507812 5.3125 -13.6875 6.3125 -13.6875 C 8.132812 -13.6875 9.625 -13.203125 10.78125 -12.234375 C 10.945312 -12.085938 11.0625 -11.945312 11.125 -11.8125 C 11.195312 -11.6875 11.234375 -11.519531 11.234375 -11.3125 C 11.234375 -11.039062 11.148438 -10.804688 10.984375 -10.609375 C 10.828125 -10.410156 10.640625 -10.3125 10.421875 -10.3125 C 10.296875 -10.3125 10.175781 -10.328125 10.0625 -10.359375 C 9.957031 -10.398438 9.816406 -10.472656 9.640625 -10.578125 C 9.117188 -10.960938 8.609375 -11.25 8.109375 -11.4375 C 7.617188 -11.625 7.019531 -11.71875 6.3125 -11.71875 C 5.4375 -11.71875 4.742188 -11.539062 4.234375 -11.1875 C 3.734375 -10.832031 3.484375 -10.34375 3.484375 -9.71875 C 3.484375 -9.195312 3.707031 -8.796875 4.15625 -8.515625 C 4.601562 -8.234375 5.363281 -7.96875 6.4375 -7.71875 C 7.570312 -7.46875 8.492188 -7.1875 9.203125 -6.875 C 9.921875 -6.5625 10.46875 -6.160156 10.84375 -5.671875 C 11.21875 -5.191406 11.40625 -4.585938 11.40625 -3.859375 C 11.40625 -3.066406 11.179688 -2.363281 10.734375 -1.75 C 10.296875 -1.144531 9.675781 -0.671875 8.875 -0.328125 C 8.082031 0.00390625 7.171875 0.171875 6.140625 0.171875 Z M 6.140625 0.171875 "/></g></g></g><g fill="#000000" fill-opacity="1"><g transform="translate(190.926266, 270.256828)"><g><path d="M 12.265625 -1.546875 C 12.421875 -1.316406 12.5 -1.09375 12.5 -0.875 C 12.5 -0.582031 12.378906 -0.335938 12.140625 -0.140625 C 11.910156 0.046875 11.632812 0.140625 11.3125 0.140625 C 11.101562 0.140625 10.90625 0.09375 10.71875 0 C 10.539062 -0.101562 10.382812 -0.25 10.25 -0.4375 L 7.703125 -4.3125 C 7.453125 -4.71875 7.179688 -5.003906 6.890625 -5.171875 C 6.609375 -5.335938 6.234375 -5.421875 5.765625 -5.421875 L 3.890625 -5.421875 L 3.890625 -1.125 C 3.890625 -0.75 3.78125 -0.445312 3.5625 -0.21875 C 3.34375 0 3.050781 0.109375 2.6875 0.109375 C 2.3125 0.109375 2.007812 0 1.78125 -0.21875 C 1.5625 -0.445312 1.453125 -0.75 1.453125 -1.125 L 1.453125 -12.34375 C 1.453125 -12.71875 1.554688 -13.003906 1.765625 -13.203125 C 1.984375 -13.410156 2.273438 -13.515625 2.640625 -13.515625 L 7.4375 -13.515625 C 8.96875 -13.515625 10.132812 -13.171875 10.9375 -12.484375 C 11.738281 -11.804688 12.140625 -10.820312 12.140625 -9.53125 C 12.140625 -8.476562 11.84375 -7.613281 11.25 -6.9375 C 10.65625 -6.269531 9.8125 -5.84375 8.71875 -5.65625 C 9.09375 -5.5625 9.421875 -5.398438 9.703125 -5.171875 C 9.984375 -4.941406 10.257812 -4.625 10.53125 -4.21875 Z M 7.09375 -7.328125 C 8.03125 -7.328125 8.710938 -7.5 9.140625 -7.84375 C 9.578125 -8.195312 9.796875 -8.738281 9.796875 -9.46875 C 9.796875 -10.207031 9.578125 -10.742188 9.140625 -11.078125 C 8.710938 -11.421875 8.03125 -11.59375 7.09375 -11.59375 L 3.875 -11.59375 L 3.875 -7.328125 Z M 7.09375 -7.328125 "/></g></g></g><g fill="#000000" fill-opacity="1"><g transform="translate(206.16016, 270.256828)"><g><path d="M 7.484375 0.171875 C 6.160156 0.171875 5.015625 -0.109375 4.046875 -0.671875 C 3.085938 -1.234375 2.34375 -2.035156 1.8125 -3.078125 C 1.289062 -4.128906 1.03125 -5.359375 1.03125 -6.765625 C 1.03125 -8.171875 1.289062 -9.394531 1.8125 -10.4375 C 2.332031 -11.476562 3.078125 -12.28125 4.046875 -12.84375 C 5.015625 -13.40625 6.160156 -13.6875 7.484375 -13.6875 C 8.796875 -13.6875 9.929688 -13.40625 10.890625 -12.84375 C 11.859375 -12.28125 12.601562 -11.476562 13.125 -10.4375 C 13.644531 -9.394531 13.90625 -8.171875 13.90625 -6.765625 C 13.90625 -5.359375 13.640625 -4.128906 13.109375 -3.078125 C 12.585938 -2.035156 11.84375 -1.234375 10.875 -0.671875 C 9.914062 -0.109375 8.785156 0.171875 7.484375 0.171875 Z M 7.484375 -1.796875 C 8.722656 -1.796875 9.6875 -2.222656 10.375 -3.078125 C 11.070312 -3.941406 11.421875 -5.171875 11.421875 -6.765625 C 11.421875 -8.367188 11.070312 -9.59375 10.375 -10.4375 C 9.6875 -11.289062 8.722656 -11.71875 7.484375 -11.71875 C 6.222656 -11.71875 5.242188 -11.289062 4.546875 -10.4375 C 3.859375 -9.59375 3.515625 -8.367188 3.515625 -6.765625 C 3.515625 -5.171875 3.859375 -3.941406 4.546875 -3.078125 C 5.242188 -2.222656 6.222656 -1.796875 7.484375 -1.796875 Z M 7.484375 -1.796875 "/></g></g></g><g fill="#000000" fill-opacity="1"><g transform="translate(223.003504, 270.256828)"><g><path d="M 7.484375 0.171875 C 6.160156 0.171875 5.015625 -0.109375 4.046875 -0.671875 C 3.085938 -1.234375 2.34375 -2.035156 1.8125 -3.078125 C 1.289062 -4.128906 1.03125 -5.359375 1.03125 -6.765625 C 1.03125 -8.171875 1.289062 -9.394531 1.8125 -10.4375 C 2.332031 -11.476562 3.078125 -12.28125 4.046875 -12.84375 C 5.015625 -13.40625 6.160156 -13.6875 7.484375 -13.6875 C 8.796875 -13.6875 9.929688 -13.40625 10.890625 -12.84375 C 11.859375 -12.28125 12.601562 -11.476562 13.125 -10.4375 C 13.644531 -9.394531 13.90625 -8.171875 13.90625 -6.765625 C 13.90625 -5.359375 13.640625 -4.128906 13.109375 -3.078125 C 12.585938 -2.035156 11.84375 -1.234375 10.875 -0.671875 C 9.914062 -0.109375 8.785156 0.171875 7.484375 0.171875 Z M 7.484375 -1.796875 C 8.722656 -1.796875 9.6875 -2.222656 10.375 -3.078125 C 11.070312 -3.941406 11.421875 -5.171875 11.421875 -6.765625 C 11.421875 -8.367188 11.070312 -9.59375 10.375 -10.4375 C 9.6875 -11.289062 8.722656 -11.71875 7.484375 -11.71875 C 6.222656 -11.71875 5.242188 -11.289062 4.546875 -10.4375 C 3.859375 -9.59375 3.515625 -8.367188 3.515625 -6.765625 C 3.515625 -5.171875 3.859375 -3.941406 4.546875 -3.078125 C 5.242188 -2.222656 6.222656 -1.796875 7.484375 -1.796875 Z M 7.484375 -1.796875 "/></g></g></g><g fill="#000000" fill-opacity="1"><g transform="translate(239.846848, 270.256828)"><g><path d="M 13.453125 -13.609375 C 13.816406 -13.609375 14.101562 -13.492188 14.3125 -13.265625 C 14.53125 -13.046875 14.640625 -12.753906 14.640625 -12.390625 L 14.640625 -1.03125 C 14.640625 -0.675781 14.535156 -0.394531 14.328125 -0.1875 C 14.128906 0.0078125 13.863281 0.109375 13.53125 0.109375 C 13.195312 0.109375 12.9375 0.0078125 12.75 -0.1875 C 12.5625 -0.394531 12.46875 -0.675781 12.46875 -1.03125 L 12.46875 -8.9375 L 9.203125 -2.765625 C 9.046875 -2.484375 8.878906 -2.273438 8.703125 -2.140625 C 8.523438 -2.003906 8.316406 -1.9375 8.078125 -1.9375 C 7.828125 -1.9375 7.613281 -2 7.4375 -2.125 C 7.257812 -2.25 7.09375 -2.460938 6.9375 -2.765625 L 3.65625 -8.84375 L 3.65625 -1.03125 C 3.65625 -0.6875 3.554688 -0.410156 3.359375 -0.203125 C 3.160156 0.00390625 2.894531 0.109375 2.5625 0.109375 C 2.238281 0.109375 1.976562 0.0078125 1.78125 -0.1875 C 1.59375 -0.394531 1.5 -0.675781 1.5 -1.03125 L 1.5 -12.390625 C 1.5 -12.753906 1.601562 -13.046875 1.8125 -13.265625 C 2.019531 -13.492188 2.304688 -13.609375 2.671875 -13.609375 C 3.160156 -13.609375 3.546875 -13.332031 3.828125 -12.78125 L 8.09375 -4.671875 L 12.328125 -12.78125 C 12.609375 -13.332031 12.984375 -13.609375 13.453125 -13.609375 Z M 13.453125 -13.609375 "/></g></g></g></svg>