<?xml version="1.0" encoding="utf-8"?>
<!-- Generator: Adobe Illustrator 25.3.1, SVG Export Plug-In . SVG Version: 6.00 Build 0)  -->
<svg version="1.1" id="Layer_1" xmlns="http://www.w3.org/2000/svg" xmlns:xlink="http://www.w3.org/1999/xlink" x="0px" y="0px"
	 viewBox="0 0 271 250" style="enable-background:new 0 0 271 250;" xml:space="preserve">
<style type="text/css">
	.st0{clip-path:url(#SVGID_2_);}
	.st1{fill:#3F78C4;}
	.st2{fill:#FFFFFF;}
	.st3{clip-path:url(#SVGID_4_);}
</style>
<g>
	<defs>
		<rect id="SVGID_1_" x="81.1" y="95" width="108.9" height="58.5"/>
	</defs>
	<clipPath id="SVGID_2_">
		<use xlink:href="#SVGID_1_"  style="overflow:visible;"/>
	</clipPath>
	<g class="st0">
		<path class="st1" d="M149,124.7c-0.3,1-0.8,1.8-1.3,2.4c-0.6,0.6-1.2,1.1-2,1.5c-0.8,0.3-1.6,0.5-2.4,0.5c-1.3,0-2.3-0.2-3-0.6
			c-0.8-0.4-1.3-0.8-1.7-1.3c-0.5,0.5-1.2,0.9-1.9,1.3c-0.8,0.4-1.6,0.6-2.6,0.6c-0.8,0-1.5-0.1-2.2-0.4c-0.7-0.3-1.3-0.7-1.8-1.2
			c-0.5-0.5-0.9-1.1-1.2-1.9c-0.3-0.7-0.4-1.6-0.4-2.5c0-1.1,0.2-2.1,0.6-3.1c0.4-0.9,0.9-1.8,1.5-2.5c0.6-0.7,1.4-1.2,2.2-1.7
			c0.8-0.4,1.7-0.6,2.6-0.6c1.1,0,1.9,0.2,2.6,0.6c0.7,0.4,1.2,0.9,1.7,1.5l0.3-1.6l3.7,0.6l-1.5,8.3c0,0.2-0.1,0.3-0.1,0.5
			c0,0.2,0,0.3,0,0.4c0,0.6,0.2,1,0.6,1.4c0.4,0.4,0.9,0.6,1.7,0.6c0.6,0,1.1-0.1,1.5-0.4c0.5-0.3,0.9-0.7,1.2-1.2
			c0.3-0.5,0.6-1.2,0.8-2c0.2-0.8,0.3-1.7,0.3-2.7c0-1.4-0.3-2.8-0.9-4.1c-0.6-1.3-1.5-2.5-2.6-3.5c-1.1-1-2.4-1.8-3.9-2.4
			c-1.5-0.6-3.1-0.9-4.8-0.9c-1.8,0-3.4,0.3-4.9,1c-1.5,0.7-2.8,1.5-3.9,2.7c-1.1,1.1-2,2.4-2.6,3.9c-0.6,1.5-0.9,3.1-0.9,4.8
			c0,1.7,0.3,3.3,0.9,4.8c0.6,1.5,1.5,2.8,2.6,3.9c1.1,1.1,2.4,2,3.9,2.6c1.5,0.6,3.2,1,5.1,1c1.5,0,2.9-0.2,4.1-0.5
			c1.2-0.3,2.3-0.9,3.5-1.6l0.6,1c-1.2,0.7-2.5,1.3-3.8,1.7c-1.3,0.4-2.8,0.6-4.4,0.6c-2,0-3.8-0.4-5.5-1.1
			c-1.7-0.7-3.1-1.7-4.4-2.9c-1.2-1.2-2.2-2.7-2.9-4.3c-0.7-1.6-1-3.4-1-5.2s0.4-3.6,1.1-5.2c0.7-1.6,1.7-3.1,2.9-4.3
			c1.2-1.2,2.7-2.2,4.3-2.9c1.7-0.7,3.4-1.1,5.3-1.1c1.9,0,3.7,0.3,5.3,1c1.6,0.7,3.1,1.6,4.3,2.7c1.2,1.1,2.2,2.4,2.9,3.9
			c0.7,1.5,1,3,1,4.6C149.5,122.6,149.3,123.7,149,124.7z M180.5,147.1l5.4-41.7c0.6-4.9-3.3-9.2-8.2-9.2H94.3c-5,0-8.8,4.3-8.2,9.2
			l5.4,41.7h-9.5v6.2H190v-6.2H180.5"/>
	</g>
</g>
<path class="st1" d="M135.9,118.5c-0.5,0-1,0.1-1.4,0.3c-0.5,0.2-0.9,0.5-1.2,0.9c-0.3,0.4-0.6,0.8-0.8,1.4
	c-0.2,0.5-0.3,1.1-0.3,1.7c0,1,0.3,1.7,0.8,2.2c0.5,0.5,1.2,0.8,2.1,0.8c0.5,0,1-0.1,1.4-0.3c0.4-0.2,0.8-0.5,1.2-0.9
	c0.3-0.4,0.6-0.9,0.8-1.4c0.2-0.5,0.3-1.1,0.3-1.8c0-0.9-0.3-1.6-0.8-2.1C137.4,118.8,136.7,118.5,135.9,118.5"/>
<path class="st2" d="M153.9,35.8v-9.1l-5.2,1.8l-11.6,4l-0.2,0.1l-1,0.3l-1-0.3l-0.2-0.1L123,28.5l-0.7-0.2l-4.3-1.5v9.1
	c0,1.4,0.7,2.6,1.7,3.3c0.6,0.4,1.4,0.7,2.2,0.7H150c0.6,0,1.3-0.2,1.8-0.4C153,38.6,153.9,37.3,153.9,35.8"/>
<g>
	<defs>
		<rect id="SVGID_3_" x="107.3" y="9.5" width="56" height="30.8"/>
	</defs>
	<clipPath id="SVGID_4_">
		<use xlink:href="#SVGID_3_"  style="overflow:visible;"/>
	</clipPath>
	<g class="st3">
		<path class="st2" d="M159.3,37.9c-0.3,0-1.1-0.9-1.1-2.7s0.8-2.7,1.1-2.7c0.3,0,1.1,0.9,1.1,2.7S159.6,37.9,159.3,37.9z
			 M135.8,29.6l0.2,0.1l0.2-0.1l12-4.2l10.1-3.5v8.5c-1.3,0.7-2.2,2.5-2.2,4.8c0,2.9,1.5,5.1,3.4,5.1c2,0,3.4-2.2,3.4-5.1
			c0-2.3-0.9-4.1-2.2-4.8v-9.3l2.8-1L135.9,9.4l-27.3,10.7l15.2,5.3L135.8,29.6"/>
	</g>
</g>
<path class="st2" d="M151.5,41.9c-0.5,0.1-1,0.2-1.6,0.2h-28.1c-0.5,0-1-0.1-1.4-0.2c-2.1,5.1-0.1,9.1,2.8,10l0.4,0
	c1.1,6,7,10.9,12.9,10.8c6.3,0,10.8-5.1,12.3-10.9c0.6-0.2,5.3-2.3,3-9.3C151.7,42.3,151.6,42.1,151.5,41.9"/>
<path class="st2" d="M171.8,78.4c-0.6-1.8-1.9-3.3-3.7-3.9c-15.3-5.5-19.6-9.2-20.7-11.2c-0.2-0.3-0.7-0.3-0.9,0.1l-6.7,23v-5.6
	c0-3.2-1.6-4.2-2.6-6.6c-0.8-2,1.4-3.5,2.7-4.2c0.4-0.2,0.5-0.7,0.2-1.1l-3.8-3.9c-0.3-0.3-0.7-0.3-1,0l-3.8,3.9
	c-0.3,0.3-0.2,0.9,0.2,1.1c1.3,0.7,3.6,2.2,2.7,4.2c-1,2.4-2.6,3.4-2.6,6.6v5.6l-6.7-23c-0.1-0.4-0.6-0.5-0.8-0.1
	c-1.2,1.9-5.5,5.7-20.7,11.2c-1.8,0.6-3.1,2.1-3.7,3.9c-1.2,3.7-4,7.7-5.3,13.7h82.3C175.8,86.1,173,82.1,171.8,78.4"/>
<g>
	<g transform="translate(89.765624, 243.874496)">
		<g>
			<path class="st2" d="M-77.4-39.3c-1.2,0-2.2-0.3-2.9-1c-0.7-0.7-1-1.7-1-2.9v-22.9c0-1.3,0.3-2.3,1-2.9c0.7-0.7,1.6-1,2.9-1
				c1.3,0,2.2,0.3,2.9,1c0.7,0.7,1,1.7,1,2.9v9.3h0.1L-63-68.3c0.5-0.6,1.1-1,1.7-1.3c0.6-0.3,1.3-0.5,2.1-0.5c1.2,0,2,0.3,2.6,0.9
				c0.5,0.6,0.8,1.3,0.7,2.2c-0.1,0.8-0.4,1.6-1,2.2l-8.9,9.4l9.4,10.6c0.7,0.8,1.1,1.7,1.1,2.5c0,0.8-0.3,1.6-0.9,2.1
				c-0.6,0.6-1.5,0.9-2.6,0.9c-1,0-1.7-0.2-2.3-0.6c-0.6-0.4-1.2-1-1.9-1.7l-10.4-11.6h-0.1v10c0,1.3-0.3,2.3-1,2.9
				C-75.2-39.7-76.1-39.3-77.4-39.3z"/>
		</g>
	</g>
</g>
<g>
	<g transform="translate(112.544023, 243.874496)">
		<g>
			<path class="st2" d="M-69.7-39.7c-2.7,0-4.1-1.4-4.1-4.1v-22c0-2.7,1.4-4.1,4.1-4.1h14.5c2,0,3.1,1,3.1,3c0,2-1,3.1-3.1,3.1h-11
				v5.7h10.1c2,0,3.1,1,3.1,3c0,2-1,3-3.1,3h-10.1v6.2h11c2,0,3.1,1,3.1,3c0,2-1,3-3.1,3H-69.7z"/>
		</g>
	</g>
</g>
<g>
	<g transform="translate(132.187199, 243.874496)">
		<g>
			<path class="st2" d="M-63.2-39.7c-1.3,0-2.3-0.3-3-1c-0.7-0.7-1-1.7-1-2.9v-22.2c0-1.3,0.3-2.3,1-3c0.7-0.7,1.6-1,2.9-1
				c1.3,0,2.2,0.3,2.9,1c0.7,0.7,1,1.7,1,3v19.6h10.4c1.1,0,1.9,0.3,2.5,0.9c0.6,0.6,0.9,1.4,0.9,2.4c0,1.1-0.3,1.9-0.9,2.4
				c-0.6,0.6-1.4,0.9-2.5,0.9H-63.2z"/>
		</g>
	</g>
</g>
<g>
	<g transform="translate(150.902602, 243.874496)">
		<g>
			<path class="st2" d="M-59.6-39.3c-1.3,0-2.3-0.4-3-1.4c-0.6-0.9-0.6-2.1,0-3.4L-51.9-67c0.5-1.1,1.1-1.9,1.9-2.4
				c0.8-0.5,1.6-0.8,2.6-0.8c1,0,1.8,0.3,2.6,0.8c0.7,0.5,1.4,1.3,1.9,2.4l10.6,22.9c0.7,1.4,0.7,2.5,0.1,3.4
				c-0.6,0.9-1.5,1.3-2.8,1.3c-1.1,0-2-0.2-2.6-0.8c-0.6-0.5-1.2-1.3-1.6-2.5l-1.4-3.2h-13.4l-1.4,3.2c-0.5,1.1-1,2-1.6,2.5
				C-57.6-39.6-58.4-39.3-59.6-39.3z M-47.5-61.6l-4.1,9.8h8.3L-47.5-61.6L-47.5-61.6z"/>
		</g>
	</g>
</g>
<g>
	<g transform="translate(175.312596, 243.874496)">
		<g>
			<path class="st2" d="M-41.6-39.2c-1.7,0-3.5-0.2-5.4-0.5c-1.8-0.4-3.4-0.9-4.7-1.5c-0.8-0.4-1.3-0.9-1.6-1.5
				c-0.3-0.6-0.4-1.3-0.3-2c0.1-0.7,0.3-1.3,0.7-1.8c0.4-0.5,0.9-0.9,1.6-1.1c0.7-0.2,1.4-0.1,2.2,0.3c1.1,0.5,2.3,1,3.7,1.2
				c1.4,0.3,2.7,0.4,3.9,0.4c1.9,0,3.2-0.2,3.9-0.7c0.8-0.5,1.1-1.1,1.1-1.9c0-0.7-0.3-1.2-0.8-1.6c-0.5-0.4-1.4-0.8-2.8-1l-5-1.1
				c-5.4-1.2-8.1-4-8.1-8.5c0-2,0.5-3.7,1.6-5.2c1.1-1.5,2.6-2.6,4.5-3.4c1.9-0.8,4.1-1.2,6.7-1.2c1.5,0,3,0.2,4.5,0.5
				c1.5,0.3,2.8,0.8,3.9,1.5c0.9,0.5,1.4,1.1,1.6,1.9c0.2,0.8,0.2,1.5-0.1,2.3c-0.3,0.7-0.8,1.3-1.5,1.6c-0.7,0.3-1.6,0.3-2.8-0.2
				c-0.8-0.4-1.8-0.6-2.8-0.8c-1-0.2-2-0.3-3-0.3c-1.6,0-2.8,0.3-3.7,0.8c-0.8,0.6-1.3,1.3-1.3,2.1c0,0.6,0.3,1.1,0.8,1.5
				c0.5,0.4,1.4,0.7,2.7,1l5,1.1c5.5,1.2,8.2,3.9,8.2,8.3c0,2-0.5,3.7-1.6,5.1c-1.1,1.4-2.5,2.6-4.4,3.4
				C-36.8-39.6-39.1-39.2-41.6-39.2z"/>
		</g>
	</g>
</g>
<g>
	<g transform="translate(196.13948, 243.874496)">
		<g>
			<path class="st2" d="M-42.3-39.3c-1.1,0-2-0.3-2.6-0.9c-0.6-0.6-0.9-1.5-0.9-2.6v-23.7c0-1.2,0.3-2.1,1-2.7
				c0.7-0.6,1.6-0.9,2.8-0.9c1,0,1.8,0.2,2.4,0.6c0.6,0.4,1.1,1,1.6,1.9l8.4,15.1l8.4-15.1c0.5-0.9,1.1-1.5,1.6-1.9
				c0.6-0.4,1.4-0.6,2.4-0.6c1.1,0,2,0.3,2.6,0.9c0.6,0.6,0.9,1.5,0.9,2.7v23.7c0,1.1-0.3,2-0.9,2.6c-0.6,0.6-1.5,0.9-2.6,0.9
				c-1.1,0-2-0.3-2.6-0.9c-0.6-0.6-0.9-1.5-0.9-2.6V-56l-6,10.4c-0.4,0.6-0.8,1.1-1.3,1.4c-0.4,0.3-1,0.5-1.8,0.5
				c-0.7,0-1.3-0.2-1.8-0.5c-0.5-0.3-0.9-0.8-1.2-1.4l-5.9-10.2v13c0,1.1-0.3,2-0.9,2.6C-40.2-39.6-41.1-39.3-42.3-39.3z"/>
		</g>
	</g>
</g>
<g>
	<g transform="translate(224.42053, 243.874496)">
		<g>
			<path class="st2" d="M-35-39.3c-1.3,0-2.3-0.4-3-1.4c-0.6-0.9-0.6-2.1,0-3.4L-27.4-67c0.5-1.1,1.1-1.9,1.9-2.4
				c0.8-0.5,1.6-0.8,2.6-0.8c1,0,1.8,0.3,2.6,0.8c0.7,0.5,1.4,1.3,1.9,2.4l10.6,22.9c0.7,1.4,0.7,2.5,0.1,3.4
				c-0.6,0.9-1.5,1.3-2.8,1.3c-1.1,0-2-0.2-2.6-0.8c-0.6-0.5-1.2-1.3-1.6-2.5l-1.4-3.2h-13.4l-1.4,3.2c-0.5,1.1-1,2-1.6,2.5
				C-33.1-39.6-33.9-39.3-35-39.3z M-23-61.6l-4.1,9.8h8.3L-23-61.6L-23-61.6z"/>
		</g>
	</g>
</g>
<g>
	<g transform="translate(248.830524, 243.874496)">
		<g>
			<path class="st2" d="M-28.2-39.4c-1.1,0.1-2-0.2-2.6-0.9c-0.6-0.6-0.9-1.4-0.9-2.4c0-0.8,0.2-1.4,0.6-2c0.4-0.6,1.1-0.9,1.9-0.9
				l1.2-0.1c1-0.1,1.8-0.3,2.3-0.7c0.5-0.4,0.7-1.2,0.7-2.2v-17.5c0-1.3,0.3-2.3,1-2.9c0.7-0.7,1.6-1,2.9-1s2.2,0.3,2.9,1
				c0.7,0.7,1,1.7,1,2.9v17.4c0,5.9-3.2,9-9.5,9.3L-28.2-39.4z"/>
		</g>
	</g>
</g>
<g>
	<g transform="translate(261.307456, 243.874496)">
		<g>
			<path class="st2" d="M-10.9-39.2c-4.4,0-7.7-1.1-10-3.3c-2.3-2.2-3.5-5.5-3.5-9.9v-13.7c0-1.3,0.3-2.3,1-2.9c0.7-0.7,1.6-1,2.9-1
				s2.2,0.3,2.9,1c0.7,0.7,1,1.7,1,2.9v13.8c0,2.2,0.5,3.8,1.4,4.9c1,1.1,2.4,1.7,4.2,1.7c1.8,0,3.2-0.6,4.2-1.7
				c1-1.1,1.5-2.8,1.5-4.9v-13.8c0-1.3,0.3-2.3,1-2.9c0.7-0.7,1.6-1,2.9-1s2.2,0.3,2.9,1c0.7,0.7,1,1.7,1,2.9v13.7
				c0,4.4-1.1,7.7-3.4,9.9C-3.2-40.3-6.5-39.2-10.9-39.2z"/>
		</g>
	</g>
</g>
<g>
	<g transform="translate(119.048654, 270.256857)">
		<g>
			<path class="st2" d="M-64.3-30.7c-1.7,0-3.3-0.4-4.6-1.1c-1.3-0.8-2.3-1.8-3-3.2c-0.7-1.4-1-3-1-4.9s0.3-3.5,1-4.9
				c0.7-1.4,1.7-2.5,3-3.2c1.3-0.8,2.8-1.1,4.6-1.1c1.1,0,2.2,0.2,3.2,0.5c1,0.3,1.9,0.8,2.6,1.4c0.2,0.2,0.4,0.3,0.5,0.5
				c0.1,0.2,0.1,0.4,0.1,0.7c0,0.4-0.1,0.7-0.3,1c-0.2,0.2-0.5,0.4-0.8,0.4c-0.3,0-0.7-0.1-1-0.4c-0.7-0.6-1.4-0.9-2.1-1.1
				c-0.6-0.2-1.3-0.3-2.1-0.3c-1.8,0-3.1,0.6-4,1.7c-0.9,1.1-1.4,2.7-1.4,4.9c0,2.2,0.5,3.8,1.4,4.9c0.9,1.1,2.3,1.6,4,1.6
				c0.7,0,1.4-0.1,2-0.3c0.6-0.2,1.3-0.6,2.1-1.1c0.2-0.1,0.3-0.2,0.5-0.2c0.2-0.1,0.4-0.1,0.5-0.1c0.3,0,0.5,0.1,0.8,0.4
				c0.2,0.2,0.3,0.6,0.3,0.9c0,0.2-0.1,0.5-0.1,0.7c-0.1,0.2-0.2,0.4-0.5,0.5c-0.8,0.6-1.6,1.1-2.6,1.4
				C-62.1-30.9-63.2-30.7-64.3-30.7z"/>
		</g>
	</g>
</g>
<g>
	<g transform="translate(133.956825, 270.256857)">
		<g>
			<path class="st2" d="M-65.8-30.9c-0.5,0-0.9-0.1-1.1-0.4c-0.3-0.3-0.4-0.7-0.4-1.1v-15c0-0.5,0.1-0.9,0.4-1.2
				c0.3-0.3,0.7-0.5,1.2-0.5c0.5,0,0.9,0.2,1.2,0.5c0.3,0.3,0.5,0.7,0.5,1.2v13.8h7.2c1,0,1.5,0.5,1.5,1.4c0,0.9-0.5,1.4-1.5,1.4
				H-65.8z"/>
		</g>
	</g>
</g>
<g>
	<g transform="translate(146.508304, 270.256857)">
		<g>
			<path class="st2" d="M-46.9-32.9c0.1,0.2,0.2,0.4,0.2,0.6c0,0.4-0.2,0.7-0.5,1c-0.3,0.3-0.7,0.4-1.1,0.4c-0.3,0-0.5-0.1-0.8-0.2
				c-0.2-0.2-0.4-0.4-0.6-0.7l-1.5-3.4h-9l-1.5,3.4c-0.1,0.3-0.3,0.5-0.6,0.7c-0.2,0.1-0.5,0.2-0.8,0.2c-0.4,0-0.8-0.1-1.1-0.4
				c-0.3-0.3-0.5-0.6-0.5-1c0-0.2,0-0.4,0.1-0.6l7.1-15.2c0.2-0.3,0.4-0.6,0.7-0.8c0.3-0.2,0.7-0.3,1-0.3c0.4,0,0.7,0.1,1,0.3
				c0.3,0.2,0.6,0.4,0.7,0.8L-46.9-32.9z M-59-37.7h6.8l-3.4-7.6L-59-37.7z"/>
		</g>
	</g>
</g>
<g>
	<g transform="translate(162.642721, 270.256857)">
		<g>
			<path class="st2" d="M-51.6-30.7c-1.3,0-2.6-0.2-3.7-0.5c-1.2-0.3-2.1-0.8-2.9-1.4c-0.4-0.3-0.6-0.7-0.6-1.2
				c0-0.4,0.1-0.7,0.3-0.9c0.2-0.3,0.5-0.4,0.8-0.4c0.3,0,0.7,0.1,1,0.4c0.7,0.5,1.5,0.9,2.3,1.2c0.8,0.2,1.7,0.4,2.7,0.4
				c1.2,0,2.2-0.2,2.9-0.6c0.7-0.4,1-1.1,1-1.9c0-0.7-0.3-1.2-0.9-1.5c-0.6-0.3-1.6-0.7-3.1-1c-1.5-0.3-2.7-0.7-3.7-1.1
				c-0.9-0.4-1.6-1-2.1-1.6c-0.5-0.7-0.7-1.5-0.7-2.5c0-1.1,0.3-2,0.9-2.8c0.6-0.8,1.4-1.5,2.5-2c1.1-0.5,2.3-0.7,3.6-0.7
				c2.4,0,4.4,0.6,6,1.9c0.2,0.2,0.4,0.4,0.5,0.6c0.1,0.2,0.1,0.4,0.1,0.7c0,0.4-0.1,0.7-0.3,0.9c-0.2,0.3-0.5,0.4-0.8,0.4
				c-0.2,0-0.3,0-0.5-0.1c-0.1-0.1-0.3-0.2-0.6-0.3c-0.7-0.5-1.4-0.9-2-1.1c-0.7-0.2-1.5-0.4-2.4-0.4c-1.2,0-2.1,0.2-2.8,0.7
				c-0.7,0.5-1,1.1-1,2c0,0.7,0.3,1.2,0.9,1.6c0.6,0.4,1.6,0.7,3,1.1c1.5,0.3,2.7,0.7,3.7,1.1c1,0.4,1.7,1,2.2,1.6
				c0.5,0.6,0.8,1.4,0.8,2.4c0,1.1-0.3,2-0.9,2.8c-0.6,0.8-1.4,1.4-2.5,1.9C-49-30.9-50.2-30.7-51.6-30.7z"/>
		</g>
	</g>
</g>
<g>
	<g transform="translate(176.784494, 270.256857)">
		<g>
			<path class="st2" d="M-46.9-30.7c-1.3,0-2.6-0.2-3.7-0.5c-1.2-0.3-2.1-0.8-2.9-1.4c-0.4-0.3-0.6-0.7-0.6-1.2
				c0-0.4,0.1-0.7,0.3-0.9c0.2-0.3,0.5-0.4,0.8-0.4c0.3,0,0.7,0.1,1,0.4c0.7,0.5,1.5,0.9,2.3,1.2c0.8,0.2,1.7,0.4,2.7,0.4
				c1.2,0,2.2-0.2,2.9-0.6c0.7-0.4,1-1.1,1-1.9c0-0.7-0.3-1.2-0.9-1.5c-0.6-0.3-1.6-0.7-3.1-1c-1.5-0.3-2.7-0.7-3.7-1.1
				c-0.9-0.4-1.6-1-2.1-1.6c-0.5-0.7-0.7-1.5-0.7-2.5c0-1.1,0.3-2,0.9-2.8c0.6-0.8,1.4-1.5,2.5-2c1.1-0.5,2.3-0.7,3.6-0.7
				c2.4,0,4.4,0.6,6,1.9c0.2,0.2,0.4,0.4,0.5,0.6c0.1,0.2,0.1,0.4,0.1,0.7c0,0.4-0.1,0.7-0.3,0.9c-0.2,0.3-0.5,0.4-0.8,0.4
				c-0.2,0-0.3,0-0.5-0.1c-0.1-0.1-0.3-0.2-0.6-0.3c-0.7-0.5-1.4-0.9-2-1.1c-0.7-0.2-1.5-0.4-2.4-0.4c-1.2,0-2.1,0.2-2.8,0.7
				c-0.7,0.5-1,1.1-1,2c0,0.7,0.3,1.2,0.9,1.6c0.6,0.4,1.6,0.7,3,1.1c1.5,0.3,2.7,0.7,3.7,1.1c1,0.4,1.7,1,2.2,1.6
				c0.5,0.6,0.8,1.4,0.8,2.4c0,1.1-0.3,2-0.9,2.8c-0.6,0.8-1.4,1.4-2.5,1.9C-44.3-30.9-45.5-30.7-46.9-30.7z"/>
		</g>
	</g>
</g>
<g>
	<g transform="translate(190.926266, 270.256857)">
		<g>
			<path class="st2" d="M-34-33c0.2,0.3,0.3,0.6,0.3,0.9c0,0.4-0.2,0.7-0.5,1c-0.3,0.2-0.7,0.4-1.1,0.4c-0.3,0-0.5-0.1-0.8-0.2
				c-0.2-0.1-0.4-0.3-0.6-0.6l-3.4-5.2c-0.3-0.5-0.7-0.9-1.1-1.1c-0.4-0.2-0.9-0.3-1.5-0.3h-2.5v5.7c0,0.5-0.1,0.9-0.4,1.2
				c-0.3,0.3-0.7,0.4-1.2,0.4c-0.5,0-0.9-0.1-1.2-0.4c-0.3-0.3-0.4-0.7-0.4-1.2v-15c0-0.5,0.1-0.9,0.4-1.1c0.3-0.3,0.7-0.4,1.2-0.4
				h6.4c2,0,3.6,0.5,4.7,1.4c1.1,0.9,1.6,2.2,1.6,3.9c0,1.4-0.4,2.6-1.2,3.5c-0.8,0.9-1.9,1.5-3.4,1.7c0.5,0.1,0.9,0.3,1.3,0.6
				c0.4,0.3,0.7,0.7,1.1,1.3L-34-33z M-40.9-40.7c1.2,0,2.2-0.2,2.7-0.7c0.6-0.5,0.9-1.2,0.9-2.2c0-1-0.3-1.7-0.9-2.1
				c-0.6-0.5-1.5-0.7-2.7-0.7h-4.3v5.7H-40.9z"/>
		</g>
	</g>
</g>
<g>
	<g transform="translate(206.16016, 270.256857)">
		<g>
			<path class="st2" d="M-35.3-30.7c-1.8,0-3.3-0.4-4.6-1.1c-1.3-0.8-2.3-1.8-3-3.2c-0.7-1.4-1-3-1-4.9s0.3-3.5,1-4.9
				c0.7-1.4,1.7-2.5,3-3.2s2.8-1.1,4.6-1.1c1.8,0,3.3,0.4,4.5,1.1c1.3,0.8,2.3,1.8,3,3.2c0.7,1.4,1,3,1,4.9s-0.4,3.5-1.1,4.9
				c-0.7,1.4-1.7,2.5-3,3.2C-32.1-31.1-33.6-30.7-35.3-30.7z M-35.3-33.3c1.7,0,2.9-0.6,3.9-1.7c0.9-1.2,1.4-2.8,1.4-4.9
				c0-2.1-0.5-3.8-1.4-4.9c-0.9-1.1-2.2-1.7-3.9-1.7c-1.7,0-3,0.6-3.9,1.7c-0.9,1.1-1.4,2.8-1.4,4.9c0,2.1,0.5,3.8,1.4,4.9
				C-38.3-33.9-37-33.3-35.3-33.3z"/>
		</g>
	</g>
</g>
<g>
	<g transform="translate(223.003504, 270.256857)">
		<g>
			<path class="st2" d="M-29.7-30.7c-1.8,0-3.3-0.4-4.6-1.1c-1.3-0.8-2.3-1.8-3-3.2c-0.7-1.4-1-3-1-4.9s0.3-3.5,1-4.9
				c0.7-1.4,1.7-2.5,3-3.2c1.3-0.8,2.8-1.1,4.6-1.1c1.8,0,3.3,0.4,4.5,1.1c1.3,0.8,2.3,1.8,3,3.2c0.7,1.4,1,3,1,4.9
				s-0.4,3.5-1.1,4.9c-0.7,1.4-1.7,2.5-3,3.2C-26.4-31.1-28-30.7-29.7-30.7z M-29.7-33.3c1.7,0,2.9-0.6,3.9-1.7
				c0.9-1.2,1.4-2.8,1.4-4.9c0-2.1-0.5-3.8-1.4-4.9c-0.9-1.1-2.2-1.7-3.9-1.7c-1.7,0-3,0.6-3.9,1.7c-0.9,1.1-1.4,2.8-1.4,4.9
				c0,2.1,0.5,3.8,1.4,4.9C-32.7-33.9-31.4-33.3-29.7-33.3z"/>
		</g>
	</g>
</g>
<g>
	<g transform="translate(239.846848, 270.256857)">
		<g>
			<path class="st2" d="M-16.1-49.1c0.5,0,0.9,0.2,1.1,0.5c0.3,0.3,0.4,0.7,0.4,1.2v15.1c0,0.5-0.1,0.8-0.4,1.1
				c-0.3,0.3-0.6,0.4-1.1,0.4c-0.4,0-0.8-0.1-1-0.4c-0.2-0.3-0.4-0.7-0.4-1.1v-10.5l-4.4,8.2c-0.2,0.4-0.4,0.7-0.7,0.8
				c-0.2,0.2-0.5,0.3-0.8,0.3c-0.3,0-0.6-0.1-0.9-0.2c-0.2-0.2-0.5-0.4-0.7-0.9l-4.4-8.1v10.4c0,0.5-0.1,0.8-0.4,1.1
				c-0.3,0.3-0.6,0.4-1.1,0.4c-0.4,0-0.8-0.1-1-0.4c-0.2-0.3-0.4-0.7-0.4-1.1v-15.1c0-0.5,0.1-0.9,0.4-1.2c0.3-0.3,0.7-0.5,1.1-0.5
				c0.7,0,1.2,0.4,1.5,1.1l5.7,10.8l5.6-10.8C-17.2-48.7-16.7-49.1-16.1-49.1z"/>
		</g>
	</g>
</g>
</svg>
